<?xml version="1.0" standalone="no"?>
<!DOCTYPE svg PUBLIC "-//W3C//DTD SVG 20010904//EN"
 "http://www.w3.org/TR/2001/REC-SVG-20010904/DTD/svg10.dtd">
<svg version="1.0" xmlns="http://www.w3.org/2000/svg"
 width="256.000000pt" height="256.000000pt" viewBox="0 0 256.000000 256.000000"
 preserveAspectRatio="xMidYMid meet">

<g transform="translate(0.000000,256.000000) scale(0.100000,-0.100000)"
fill="#000000" stroke="none">
<path d="M677 2551 l-69 -8 -295 -295 -295 -295 -10 -94 c-5 -53 -7 -344 -5
-659 4 -639 2 -624 84 -790 40 -80 61 -109 137 -185 101 -101 192 -156 326
-196 74 -23 85 -23 687 -27 670 -3 712 -1 848 53 170 68 311 197 389 356 84
171 81 139 81 869 0 643 0 645 -23 724 -39 136 -94 229 -197 332 -77 78 -105
98 -185 137 -169 82 -148 80 -815 83 -324 1 -621 -1 -658 -5z m910 -723 c177
-176 256 -263 264 -286 23 -69 -23 -147 -94 -159 -64 -10 -87 4 -219 135
l-128 126 0 -327 c0 -363 -3 -381 -62 -417 -42 -25 -94 -25 -136 0 -59 36 -62
54 -62 417 l0 328 -122 -122 c-68 -66 -133 -126 -145 -132 -103 -52 -222 66
-169 167 8 15 126 138 263 275 l249 247 54 0 54 0 253 -252z m-955 -634 c68
-32 73 -49 76 -249 2 -168 4 -181 23 -197 20 -17 61 -18 548 -18 460 0 529 2
549 16 21 15 22 21 22 182 0 184 8 216 63 256 59 43 142 18 180 -55 16 -30 18
-58 15 -249 l-3 -215 -29 -53 c-32 -57 -79 -98 -135 -118 -28 -10 -180 -13
-667 -14 l-632 0 -53 28 c-59 30 -111 95 -129 160 -5 20 -10 127 -10 237 0
214 5 240 53 274 48 35 80 39 129 15z"/>
</g>
</svg>
