<?xml version="1.0" encoding="UTF-8"?>
<svg id="Layer_1" data-name="Layer 1" xmlns="http://www.w3.org/2000/svg" viewBox="0 0 645.49 151.58">
  <defs>
    <style>
      .cls-1, .cls-2 {
        fill: #0248f7;
      }

      .cls-3, .cls-4 {
        fill: #1b181e;
      }

      .cls-2, .cls-4 {
        fill-rule: evenodd;
      }
    </style>
  </defs>
  <g>
    <polygon class="cls-2" points="143.45 71.49 143.45 14.79 86.65 14.79 86.65 42.99 114.85 42.99 114.85 71.49 143.45 71.49"/>
    <g>
      <path class="cls-3" d="M196.95,51.49v6.4h-12.6v35.4h-7.8v-35.4h-12.6v-6.4h33Z"/>
      <path class="cls-3" d="M239.75,72.39c0,3.1-.5,5.9-1.5,8.5s-2.5,4.9-4.3,6.8c-1.9,1.9-4.1,3.4-6.7,4.5-2.6,1.1-5.5,1.6-8.6,1.6s-6.1-.5-8.7-1.6c-2.6-1.1-4.9-2.6-6.7-4.5-1.9-1.9-3.3-4.2-4.3-6.8-1-2.6-1.5-5.5-1.5-8.5s.5-5.9,1.5-8.5,2.5-4.9,4.3-6.8c1.9-1.9,4.1-3.4,6.7-4.5,2.6-1.1,5.5-1.6,8.7-1.6s6,.5,8.6,1.6,4.8,2.6,6.7,4.5,3.3,4.2,4.3,6.8,1.5,5.5,1.5,8.5ZM231.85,72.39c0-2.3-.3-4.4-.9-6.2-.6-1.8-1.5-3.4-2.6-4.6-1.1-1.3-2.5-2.2-4.2-2.9-1.6-.7-3.5-1-5.5-1s-3.9.3-5.5,1-3,1.6-4.2,2.9c-1.1,1.3-2,2.8-2.6,4.6s-.9,3.9-.9,6.2.3,4.4.9,6.2c.6,1.8,1.5,3.4,2.6,4.6,1.1,1.3,2.5,2.2,4.2,2.9,1.6.7,3.5,1,5.5,1s3.9-.3,5.5-1,3-1.6,4.2-2.9c1.1-1.3,2-2.8,2.6-4.6.6-1.8.9-3.9.9-6.2Z"/>
      <path class="cls-3" d="M253.95,78.59v14.7h-7.8v-41.8h13.6c2.8,0,5.2.3,7.3,1,2,.7,3.7,1.6,5.1,2.7,1.3,1.2,2.3,2.6,3,4.2.6,1.6,1,3.4,1,5.4s-.3,3.9-1,5.6c-.7,1.7-1.7,3.1-3,4.4-1.4,1.2-3,2.2-5.1,2.8-2,.7-4.4,1-7.1,1h-6ZM253.95,72.49h5.8c1.4,0,2.7-.2,3.7-.5,1.1-.4,1.9-.9,2.6-1.5s1.2-1.5,1.6-2.4c.3-1,.5-2,.5-3.2s-.2-2.1-.5-3-.9-1.7-1.6-2.3c-.7-.6-1.6-1.1-2.6-1.5-1.1-.3-2.3-.5-3.7-.5h-5.8v15-.1Z"/>
      <path class="cls-3" d="M280.75,72.79h15v6h-15v-6Z"/>
      <path class="cls-3" d="M319.65,78.39c0,2.4-.3,4.5-.9,6.4s-1.4,3.5-2.6,4.8c-1.1,1.3-2.6,2.4-4.3,3.1-1.7.7-3.7,1.1-6,1.1s-2.1,0-3.1-.2c-1-.1-2.1-.3-3.2-.6l.4-4.6c0-.4.2-.8.5-1,.3-.3.7-.4,1.2-.4s.8,0,1.3.2,1.2.2,2,.2,2.1-.2,2.9-.5,1.6-.8,2.1-1.5c.6-.7,1-1.6,1.3-2.7s.4-2.5.4-4v-27.1h7.8v27l.2-.2Z"/>
      <path class="cls-3" d="M344.95,86.99c1.5,0,2.8-.3,4-.8s2.2-1.2,3-2.1,1.4-2,1.9-3.3c.4-1.3.7-2.7.7-4.3v-25.1h7.8v25.1c0,2.5-.4,4.8-1.2,6.9s-2,3.9-3.5,5.5c-1.5,1.5-3.3,2.7-5.5,3.6-2.1.9-4.6,1.3-7.2,1.3s-5.1-.4-7.2-1.3-4-2.1-5.5-3.6-2.6-3.4-3.4-5.5-1.2-4.4-1.2-6.9v-25.1h7.8v25c0,1.6.2,3,.7,4.3.4,1.3,1.1,2.4,1.9,3.3s1.8,1.6,3,2.1,2.5.8,4,.8l-.1.1Z"/>
      <path class="cls-3" d="M378.35,76.89v16.3h-7.8v-41.8h12.8c2.9,0,5.3.3,7.3.9,2,.6,3.7,1.4,5,2.5s2.3,2.3,2.9,3.8.9,3.1.9,4.9-.2,2.7-.6,4-1,2.4-1.8,3.4-1.7,1.9-2.9,2.7-2.5,1.4-3.9,1.9c1,.6,1.8,1.4,2.5,2.4l10.5,15.4h-7c-.7,0-1.2-.1-1.7-.4s-.9-.7-1.2-1.2l-8.8-13.4c-.3-.5-.7-.9-1.1-1.1s-1-.3-1.7-.3h-3.4ZM378.35,71.39h4.9c1.5,0,2.7-.2,3.8-.5,1.1-.4,2-.9,2.7-1.5s1.2-1.4,1.6-2.3c.3-.9.5-1.9.5-2.9,0-2.1-.7-3.8-2.1-4.9-1.4-1.1-3.5-1.7-6.4-1.7h-5v13.9-.1Z"/>
      <path class="cls-3" d="M416.95,93.29h-7.8v-41.8h7.8v41.8Z"/>
      <path class="cls-3" d="M463.45,72.39c0,3.1-.5,5.9-1.5,8.4-1,2.6-2.5,4.8-4.3,6.6-1.9,1.9-4.1,3.3-6.7,4.3s-5.5,1.5-8.6,1.5h-16v-41.8h16c3.2,0,6,.5,8.6,1.5s4.8,2.5,6.7,4.3c1.9,1.8,3.3,4,4.3,6.6s1.5,5.4,1.5,8.4v.2ZM455.55,72.39c0-2.3-.3-4.4-.9-6.2s-1.5-3.4-2.6-4.6c-1.1-1.3-2.5-2.2-4.2-2.9-1.6-.7-3.5-1-5.5-1h-8.1v29.4h8.1c2,0,3.9-.3,5.5-1s3-1.6,4.2-2.9c1.1-1.3,2-2.8,2.6-4.6.6-1.8.9-3.9.9-6.2Z"/>
      <path class="cls-3" d="M478.35,93.29h-7.8v-41.8h7.8v41.8Z"/>
      <path class="cls-3" d="M527.85,72.39c0,1.9-.2,3.7-.6,5.4-.4,1.7-.9,3.3-1.7,4.8-.7,1.5-1.6,2.8-2.6,4.1-1,1.2-2.2,2.3-3.6,3.3l10.6,11.6h-6.4c-.9,0-1.8-.1-2.5-.4s-1.4-.7-2-1.4l-6.1-6.8c-1,.3-2,.5-3,.6s-2.1.2-3.2.2c-3.2,0-6.1-.5-8.7-1.6s-4.9-2.6-6.7-4.5c-1.9-1.9-3.3-4.2-4.3-6.8-1-2.6-1.5-5.5-1.5-8.5s.5-5.9,1.5-8.5,2.5-4.9,4.3-6.8c1.9-1.9,4.1-3.4,6.7-4.5s5.5-1.6,8.7-1.6,6,.5,8.6,1.6,4.8,2.6,6.7,4.5,3.3,4.2,4.3,6.8,1.5,5.5,1.5,8.5ZM519.85,72.39c0-2.3-.3-4.4-.9-6.2s-1.5-3.4-2.6-4.6c-1.1-1.3-2.5-2.2-4.2-2.9-1.6-.7-3.5-1-5.5-1s-3.9.3-5.5,1-3,1.6-4.2,2.9c-1.1,1.3-2,2.8-2.6,4.6s-.9,3.9-.9,6.2.3,4.4.9,6.2c.6,1.8,1.5,3.4,2.6,4.6,1.1,1.3,2.5,2.2,4.2,2.9,1.6.7,3.5,1,5.5,1s3.9-.3,5.5-1,3-1.6,4.2-2.9c1.1-1.3,2-2.8,2.6-4.6.6-1.8.9-3.9.9-6.2Z"/>
      <path class="cls-3" d="M550.85,86.99c1.5,0,2.8-.3,4-.8s2.2-1.2,3-2.1,1.4-2,1.9-3.3c.4-1.3.7-2.7.7-4.3v-25.1h7.8v25.1c0,2.5-.4,4.8-1.2,6.9s-2,3.9-3.5,5.5c-1.5,1.5-3.3,2.7-5.5,3.6-2.1.9-4.6,1.3-7.2,1.3s-5.1-.4-7.2-1.3c-2.1-.9-4-2.1-5.5-3.6s-2.6-3.4-3.4-5.5c-.8-2.1-1.2-4.4-1.2-6.9v-25.1h7.8v25c0,1.6.2,3,.7,4.3.4,1.3,1.1,2.4,1.9,3.3.8.9,1.8,1.6,3,2.1s2.5.8,4,.8l-.1.1Z"/>
      <path class="cls-3" d="M602.45,51.49v6.2h-18.5v11.6h14.6v6h-14.6v11.8h18.5v6.2h-26.4v-41.8h26.4Z"/>
    </g>
  </g>
  <polygon class="cls-1" points="612.25 51.49 608.85 50.39 611.65 41.49 602.55 41.59 602.45 37.99 616.65 37.79 612.25 51.49"/>
  <rect class="cls-1" x="609.64" y="28.48" width="3.6" height="5.8" transform="translate(19.95 189.45) rotate(-17.9)"/>
  <rect class="cls-1" x="619.09" y="41.66" width="3.6" height="5.9" transform="translate(214.06 515.76) rotate(-53.3)"/>
  <rect class="cls-1" x="618.05" y="32.31" width="5.8" height="3.6" transform="translate(93.88 364.17) rotate(-35.2)"/>
  <path class="cls-4" d="M114.72,79.13c-.78,8.95-5.12,16.88-11.59,22.37-5.78,4.9-13.26,7.86-21.44,7.86s-15.66-2.96-21.44-7.86c-7.17-6.08-11.72-15.15-11.72-25.3,0-.45,0-.89.03-1.34.67-16.86,13.92-30.48,30.63-31.72l-.4.03V14.69c-32.66,1.52-58.69,28.48-58.69,61.52,0,9.02,1.94,17.58,5.42,25.3,4.94,10.96,13,20.21,23.04,26.63,9.57,6.12,20.93,9.66,33.13,9.66s23.56-3.55,33.13-9.66c10.04-6.42,18.1-15.67,23.04-26.63,3.1-6.86,4.97-14.4,5.35-22.32h-28.49v-.05Z"/>
</svg>